<svg width="15919" height="15927" viewBox="0 0 15919 15927" fill="none" xmlns="http://www.w3.org/2000/svg">
<rect width="15919" height="15927" fill="#1E1E1E" fill-opacity="0.03"/>
<path d="M11963 1490L12296 1339" stroke="black"/>
<ellipse cx="336" cy="1872.5" rx="336" ry="335.5" fill="#F95E5E"/>
<ellipse cx="354" cy="14650.5" rx="336" ry="335.5" fill="#F95E5E"/>
<circle cx="2534" cy="365" r="336" fill="#F95E5E"/>
<ellipse cx="354.5" cy="12094" rx="336.5" ry="336" fill="#F95E5E"/>
<ellipse cx="354" cy="9538.5" rx="336" ry="335.5" fill="#F95E5E"/>
<ellipse cx="354.5" cy="6982" rx="336.5" ry="336" fill="#F95E5E"/>
<ellipse cx="354" cy="4426.5" rx="336" ry="335.5" fill="#F95E5E"/>
<ellipse cx="4713" cy="1872.5" rx="336" ry="335.5" fill="#F95E5E"/>
<ellipse cx="4712.5" cy="14650" rx="335.5" ry="335" fill="#F95E5E"/>
<ellipse cx="4713" cy="12093.5" rx="336" ry="335.5" fill="#F95E5E"/>
<ellipse cx="4713" cy="9538.5" rx="336" ry="335.5" fill="#F95E5E"/>
<ellipse cx="4713.5" cy="6982" rx="336.5" ry="336" fill="#F95E5E"/>
<ellipse cx="4713" cy="4426.5" rx="336" ry="335.5" fill="#F95E5E"/>
<circle cx="2533" cy="2831" r="336" fill="#F95E5E"/>
<circle cx="2533" cy="15563" r="336" fill="#F95E5E"/>
<circle cx="2533" cy="13052" r="336" fill="#F95E5E"/>
<circle cx="2533" cy="10498" r="336" fill="#F95E5E"/>
<circle cx="2534" cy="7941" r="336" fill="#F95E5E"/>
<circle cx="2534" cy="5386" r="336" fill="#F95E5E"/>
<ellipse cx="6891.5" cy="365" rx="336.5" ry="336" fill="#F95E5E"/>
<ellipse cx="6891" cy="2830.5" rx="336" ry="335.5" fill="#F95E5E"/>
<ellipse cx="6891" cy="15562.5" rx="336" ry="335.5" fill="#F95E5E"/>
<ellipse cx="6891" cy="13051.5" rx="336" ry="335.5" fill="#F95E5E"/>
<ellipse cx="6891" cy="10497.5" rx="336" ry="335.5" fill="#F95E5E"/>
<ellipse cx="6892" cy="7941.5" rx="337" ry="336.5" fill="#F95E5E"/>
<ellipse cx="6891" cy="5385.5" rx="336" ry="335.5" fill="#F95E5E"/>
<ellipse cx="9070.5" cy="1873" rx="336.5" ry="336" fill="#F95E5E"/>
<ellipse cx="9070.5" cy="14651" rx="336.5" ry="336" fill="#F95E5E"/>
<circle cx="11251.5" cy="365.5" r="336.5" fill="#F95E5E"/>
<ellipse cx="9070.5" cy="12094" rx="336.5" ry="336" fill="#F95E5E"/>
<ellipse cx="9070.5" cy="9539" rx="336.5" ry="336" fill="#F95E5E"/>
<ellipse cx="9070.5" cy="6982" rx="336.5" ry="336" fill="#F95E5E"/>
<ellipse cx="9070.5" cy="4428" rx="336.5" ry="336" fill="#F95E5E"/>
<circle cx="13429.5" cy="1872.5" r="335.5" fill="#F95E5E"/>
<circle cx="13429.5" cy="14650.5" r="335.5" fill="#F95E5E"/>
<circle cx="13430" cy="12094" r="336" fill="#F95E5E"/>
<circle cx="13429.5" cy="9538.5" r="335.5" fill="#F95E5E"/>
<circle cx="13430" cy="6982" r="336" fill="#F95E5E"/>
<circle cx="13429.5" cy="4426.5" r="335.5" fill="#F95E5E"/>
<ellipse cx="11251.5" cy="2831" rx="336.5" ry="336" fill="#F95E5E"/>
<circle cx="11251" cy="15563" r="336" fill="#F95E5E"/>
<circle cx="11251" cy="13052" r="336" fill="#F95E5E"/>
<ellipse cx="11251" cy="10497.5" rx="336" ry="335.5" fill="#F95E5E"/>
<circle cx="11251.5" cy="7941.5" r="336.5" fill="#F95E5E"/>
<circle cx="11251" cy="5386" r="336" fill="#F95E5E"/>
<ellipse cx="15578" cy="364.5" rx="336" ry="335.5" fill="#F95E5E"/>
<circle cx="15577.5" cy="2830.5" r="335.5" fill="#F95E5E"/>
<circle cx="15583" cy="15591" r="336" fill="#F95E5E"/>
<ellipse cx="15578" cy="13051.5" rx="336" ry="335.5" fill="#F95E5E"/>
<ellipse cx="15578" cy="10497.5" rx="336" ry="335.5" fill="#F95E5E"/>
<ellipse cx="15577.5" cy="7941" rx="336.5" ry="336" fill="#F95E5E"/>
<ellipse cx="15578" cy="5385.5" rx="336" ry="335.5" fill="#F95E5E"/>
<ellipse cx="354" cy="1872.5" rx="336" ry="335.5" fill="#F95E5E"/>
<ellipse cx="354" cy="14650.5" rx="336" ry="335.5" fill="#F95E5E"/>
<ellipse cx="2534" cy="336.5" rx="336" ry="336.5" fill="#F95E5E"/>
<ellipse cx="354.5" cy="12094" rx="336.5" ry="336" fill="#F95E5E"/>
<ellipse cx="354" cy="9538.5" rx="336" ry="335.5" fill="#F95E5E"/>
<ellipse cx="354.5" cy="6982" rx="336.5" ry="336" fill="#F95E5E"/>
<ellipse cx="354" cy="4426.5" rx="336" ry="335.5" fill="#F95E5E"/>
<ellipse cx="4713" cy="1872.5" rx="336" ry="335.5" fill="#F95E5E"/>
<ellipse cx="4712.5" cy="14650" rx="335.5" ry="335" fill="#F95E5E"/>
<ellipse cx="4713" cy="12093.5" rx="336" ry="335.5" fill="#F95E5E"/>
<ellipse cx="4713" cy="9538.5" rx="336" ry="335.5" fill="#F95E5E"/>
<ellipse cx="4713.5" cy="6982" rx="336.5" ry="336" fill="#F95E5E"/>
<ellipse cx="4713" cy="4426.5" rx="336" ry="335.5" fill="#F95E5E"/>
<circle cx="2533" cy="2831" r="336" fill="#F95E5E"/>
<circle cx="2533" cy="15563" r="336" fill="#F95E5E"/>
<circle cx="2533" cy="13052" r="336" fill="#F95E5E"/>
<circle cx="2533" cy="10498" r="336" fill="#F95E5E"/>
<circle cx="2534" cy="7941" r="336" fill="#F95E5E"/>
<circle cx="2534" cy="5386" r="336" fill="#F95E5E"/>
<ellipse cx="6891.5" cy="365" rx="336.5" ry="336" fill="#F95E5E"/>
<ellipse cx="6891" cy="2831.5" rx="336" ry="336.5" fill="#F95E5E"/>
<ellipse cx="6891" cy="15562.5" rx="336" ry="335.5" fill="#F95E5E"/>
<ellipse cx="6891" cy="13051.5" rx="336" ry="335.5" fill="#F95E5E"/>
<ellipse cx="6891" cy="10497.5" rx="336" ry="335.5" fill="#F95E5E"/>
<ellipse cx="6892" cy="7941.5" rx="337" ry="336.5" fill="#F95E5E"/>
<ellipse cx="6891" cy="5385.5" rx="336" ry="335.5" fill="#F95E5E"/>
</svg>
