<svg width="114" height="114" viewBox="0 0 114 114" fill="none" xmlns="http://www.w3.org/2000/svg">
<g clip-path="url(#clip0_131_742)">
<path opacity="0.5" d="M56.9478 0.00549316L57.0581 6.30847" stroke="white" stroke-width="0.551925" stroke-miterlimit="10"/>
<path opacity="0.1" d="M53.9614 0.0883789L54.403 6.3748" stroke="white" stroke-width="0.551925" stroke-miterlimit="10"/>
<path opacity="0.1" d="M50.9863 0.320068L51.7535 6.57889" stroke="white" stroke-width="0.551925" stroke-miterlimit="10"/>
<path opacity="0.1" d="M48.0288 0.717529L49.1271 6.92116" stroke="white" stroke-width="0.551925" stroke-miterlimit="10"/>
<path opacity="0.1" d="M45.0972 1.26404L46.5156 7.40144" stroke="white" stroke-width="0.551925" stroke-miterlimit="10"/>
<path opacity="0.1" d="M42.1948 1.95947L43.9334 8.0196" stroke="white" stroke-width="0.551925" stroke-miterlimit="10"/>
<path opacity="0.1" d="M39.3354 2.8092L41.3886 8.76999" stroke="white" stroke-width="0.551925" stroke-miterlimit="10"/>
<path opacity="0.1" d="M36.5264 3.80823L38.8831 9.65311" stroke="white" stroke-width="0.551925" stroke-miterlimit="10"/>
<path opacity="0.1" d="M33.7671 4.9563L36.4329 10.6687" stroke="white" stroke-width="0.551925" stroke-miterlimit="10"/>
<path opacity="0.1" d="M31.0732 6.24231L34.0371 11.8057" stroke="white" stroke-width="0.551925" stroke-miterlimit="10"/>
<path opacity="0.2" d="M28.457 7.66626L31.7023 13.0696" stroke="white" stroke-width="0.551925" stroke-miterlimit="10"/>
<path opacity="0.1" d="M25.9131 9.22827L29.4344 14.455" stroke="white" stroke-width="0.551925" stroke-miterlimit="10"/>
<path opacity="0.1" d="M23.4565 10.9226L27.2483 15.9562" stroke="white" stroke-width="0.551925" stroke-miterlimit="10"/>
<path opacity="0.1" d="M21.0889 12.7439L25.14 17.5677" stroke="white" stroke-width="0.551925" stroke-miterlimit="10"/>
<path opacity="0.1" d="M18.8208 14.6812L23.1203 19.2897" stroke="white" stroke-width="0.551925" stroke-miterlimit="10"/>
<path opacity="0.1" d="M16.6572 16.7399L21.194 21.1166" stroke="white" stroke-width="0.551925" stroke-miterlimit="10"/>
<path opacity="0.1" d="M14.6094 18.9033L19.367 23.0372" stroke="white" stroke-width="0.551925" stroke-miterlimit="10"/>
<path opacity="0.1" d="M12.6719 21.1774L17.6392 25.0574" stroke="white" stroke-width="0.551925" stroke-miterlimit="10"/>
<path opacity="0.1" d="M10.8564 23.5452L16.0225 27.1603" stroke="white" stroke-width="0.551925" stroke-miterlimit="10"/>
<path opacity="0.1" d="M9.16748 26.0067L14.5156 29.3459" stroke="white" stroke-width="0.551925" stroke-miterlimit="10"/>
<path opacity="0.1" d="M7.61133 28.551L13.1251 31.6087" stroke="white" stroke-width="0.551925" stroke-miterlimit="10"/>
<path opacity="0.2" d="M6.19238 31.1726L11.8551 33.9378" stroke="white" stroke-width="0.551925" stroke-miterlimit="10"/>
<path opacity="0.1" d="M4.91211 33.8661L10.7128 36.3332" stroke="white" stroke-width="0.551925" stroke-miterlimit="10"/>
<path opacity="0.1" d="M3.77002 36.6257L9.69217 38.7838" stroke="white" stroke-width="0.551925" stroke-miterlimit="10"/>
<path opacity="0.1" d="M2.77588 39.4404L8.80289 41.2839" stroke="white" stroke-width="0.551925" stroke-miterlimit="10"/>
<path opacity="0.1" d="M1.93213 42.2996L8.04745 43.8284" stroke="white" stroke-width="0.551925" stroke-miterlimit="10"/>
<path opacity="0.1" d="M1.23633 45.2026L7.4234 46.4058" stroke="white" stroke-width="0.551925" stroke-miterlimit="10"/>
<path opacity="0.1" d="M0.695312 48.1388L6.93758 49.0164" stroke="white" stroke-width="0.551925" stroke-miterlimit="10"/>
<path opacity="0.1" d="M0.309082 51.0973L6.58998 51.6492" stroke="white" stroke-width="0.551925" stroke-miterlimit="10"/>
<path opacity="0.1" d="M0.0825195 54.072L6.37998 54.2928" stroke="white" stroke-width="0.551925" stroke-miterlimit="10"/>
<path opacity="0.5" d="M0.00537109 57.058L6.30835 56.9476" stroke="white" stroke-width="0.551925" stroke-miterlimit="10"/>
<path opacity="0.1" d="M0.0883789 60.0383L6.3748 59.5968" stroke="white" stroke-width="0.551925" stroke-miterlimit="10"/>
<path opacity="0.1" d="M0.320312 63.0131L6.57914 62.246" stroke="white" stroke-width="0.551925" stroke-miterlimit="10"/>
<path opacity="0.1" d="M0.717285 65.9715L6.92092 64.8787" stroke="white" stroke-width="0.551925" stroke-miterlimit="10"/>
<path opacity="0.1" d="M1.26416 68.9023L7.40156 67.4894" stroke="white" stroke-width="0.551925" stroke-miterlimit="10"/>
<path opacity="0.1" d="M1.95898 71.8053L8.01911 70.0668" stroke="white" stroke-width="0.551925" stroke-miterlimit="10"/>
<path opacity="0.1" d="M2.80908 74.6645L8.76987 72.6113" stroke="white" stroke-width="0.551925" stroke-miterlimit="10"/>
<path opacity="0.1" d="M3.80811 77.4791L9.65299 75.1168" stroke="white" stroke-width="0.551925" stroke-miterlimit="10"/>
<path opacity="0.1" d="M4.95654 80.2332L10.669 77.5674" stroke="white" stroke-width="0.551925" stroke-miterlimit="10"/>
<path opacity="0.2" d="M6.24268 82.9266L11.8061 79.9683" stroke="white" stroke-width="0.551925" stroke-miterlimit="10"/>
<path opacity="0.1" d="M7.6665 85.5482L13.0698 82.2974" stroke="white" stroke-width="0.551925" stroke-miterlimit="10"/>
<path opacity="0.1" d="M9.22852 88.0871L14.4552 84.5658" stroke="white" stroke-width="0.551925" stroke-miterlimit="10"/>
<path opacity="0.1" d="M10.9224 90.5487L15.9559 86.7515" stroke="white" stroke-width="0.551925" stroke-miterlimit="10"/>
<path opacity="0.1" d="M12.7441 92.911L17.568 88.8599" stroke="white" stroke-width="0.551925" stroke-miterlimit="10"/>
<path opacity="0.1" d="M14.6816 95.1794L19.2902 90.8799" stroke="white" stroke-width="0.551925" stroke-miterlimit="10"/>
<path opacity="0.1" d="M16.7402 97.343L21.117 92.8062" stroke="white" stroke-width="0.551925" stroke-miterlimit="10"/>
<path opacity="0.1" d="M18.9033 99.3961L23.0372 94.6385" stroke="white" stroke-width="0.551925" stroke-miterlimit="10"/>
<path opacity="0.1" d="M21.1772 101.328L25.0573 96.3605" stroke="white" stroke-width="0.551925" stroke-miterlimit="10"/>
<path opacity="0.1" d="M23.5449 103.144L27.16 97.9833" stroke="white" stroke-width="0.551925" stroke-miterlimit="10"/>
<path opacity="0.1" d="M26.0063 104.833L29.3455 99.4844" stroke="white" stroke-width="0.551925" stroke-miterlimit="10"/>
<path opacity="0.2" d="M28.5513 106.389L31.6089 100.875" stroke="white" stroke-width="0.551925" stroke-miterlimit="10"/>
<path opacity="0.1" d="M31.1729 107.807L33.938 102.145" stroke="white" stroke-width="0.551925" stroke-miterlimit="10"/>
<path opacity="0.1" d="M33.8657 109.093L36.3328 103.287" stroke="white" stroke-width="0.551925" stroke-miterlimit="10"/>
<path opacity="0.1" d="M36.6255 110.23L38.7835 104.308" stroke="white" stroke-width="0.551925" stroke-miterlimit="10"/>
<path opacity="0.1" d="M39.4409 111.224L41.2843 105.197" stroke="white" stroke-width="0.551925" stroke-miterlimit="10"/>
<path opacity="0.1" d="M42.2993 112.068L43.8281 105.953" stroke="white" stroke-width="0.551925" stroke-miterlimit="10"/>
<path opacity="0.1" d="M45.2026 112.764L46.4058 106.577" stroke="white" stroke-width="0.551925" stroke-miterlimit="10"/>
<path opacity="0.1" d="M48.1392 113.305L49.0167 107.062" stroke="white" stroke-width="0.551925" stroke-miterlimit="10"/>
<path opacity="0.1" d="M51.0972 113.691L51.6491 107.41" stroke="white" stroke-width="0.551925" stroke-miterlimit="10"/>
<path opacity="0.1" d="M54.0723 113.923L54.293 107.62" stroke="white" stroke-width="0.551925" stroke-miterlimit="10"/>
<path opacity="0.5" d="M57.0581 113.994L56.9478 107.697" stroke="white" stroke-width="0.551925" stroke-miterlimit="10"/>
<path opacity="0.1" d="M60.0382 113.917L59.5967 107.631" stroke="white" stroke-width="0.551925" stroke-miterlimit="10"/>
<path opacity="0.1" d="M63.0133 113.68L62.2461 107.421" stroke="white" stroke-width="0.551925" stroke-miterlimit="10"/>
<path opacity="0.1" d="M65.9717 113.288L64.8789 107.079" stroke="white" stroke-width="0.551925" stroke-miterlimit="10"/>
<path opacity="0.1" d="M68.9022 112.742L67.4893 106.599" stroke="white" stroke-width="0.551925" stroke-miterlimit="10"/>
<path opacity="0.1" d="M71.8059 112.041L70.0674 105.981" stroke="white" stroke-width="0.551925" stroke-miterlimit="10"/>
<path opacity="0.1" d="M74.664 111.191L72.6108 105.23" stroke="white" stroke-width="0.551925" stroke-miterlimit="10"/>
<path opacity="0.1" d="M77.4789 110.192L75.1167 104.347" stroke="white" stroke-width="0.551925" stroke-miterlimit="10"/>
<path opacity="0.1" d="M80.2332 109.049L77.5674 103.337" stroke="white" stroke-width="0.551925" stroke-miterlimit="10"/>
<path opacity="0.2" d="M82.9271 107.758L79.9688 102.194" stroke="white" stroke-width="0.551925" stroke-miterlimit="10"/>
<path opacity="0.2" d="M85.5482 106.334L82.2974 100.931" stroke="white" stroke-width="0.551925" stroke-miterlimit="10"/>
<path opacity="0.1" d="M88.0872 104.772L84.5659 99.545" stroke="white" stroke-width="0.551925" stroke-miterlimit="10"/>
<path opacity="0.1" d="M90.5487 103.077L86.7515 98.0438" stroke="white" stroke-width="0.551925" stroke-miterlimit="10"/>
<path opacity="0.1" d="M92.9105 101.262L88.8594 96.4323" stroke="white" stroke-width="0.551925" stroke-miterlimit="10"/>
<path opacity="0.1" d="M95.1794 99.3188L90.8799 94.7102" stroke="white" stroke-width="0.551925" stroke-miterlimit="10"/>
<path opacity="0.1" d="M97.3425 97.2657L92.8057 92.8834" stroke="white" stroke-width="0.551925" stroke-miterlimit="10"/>
<path opacity="0.1" d="M99.3958 95.0967L94.6382 90.9628" stroke="white" stroke-width="0.551925" stroke-miterlimit="10"/>
<path opacity="0.1" d="M101.328 92.8283L96.3604 88.9482" stroke="white" stroke-width="0.551925" stroke-miterlimit="10"/>
<path opacity="0.1" d="M103.143 90.4548L97.9824 86.8397" stroke="white" stroke-width="0.551925" stroke-miterlimit="10"/>
<path opacity="0.1" d="M104.833 87.9988L99.4844 84.6542" stroke="white" stroke-width="0.551925" stroke-miterlimit="10"/>
<path opacity="0.2" d="M106.389 85.449L100.875 82.3969" stroke="white" stroke-width="0.551925" stroke-miterlimit="10"/>
<path opacity="0.1" d="M107.807 82.8273L102.145 80.0621" stroke="white" stroke-width="0.551925" stroke-miterlimit="10"/>
<path opacity="0.1" d="M109.094 80.134L103.288 77.6724" stroke="white" stroke-width="0.551925" stroke-miterlimit="10"/>
<path opacity="0.1" d="M110.23 77.3743L104.308 75.2218" stroke="white" stroke-width="0.551925" stroke-miterlimit="10"/>
<path opacity="0.1" d="M111.224 74.5594L105.197 72.7159" stroke="white" stroke-width="0.551925" stroke-miterlimit="10"/>
<path opacity="0.1" d="M112.068 71.7005L105.953 70.1716" stroke="white" stroke-width="0.551925" stroke-miterlimit="10"/>
<path opacity="0.1" d="M112.764 68.7973L106.577 67.5941" stroke="white" stroke-width="0.551925" stroke-miterlimit="10"/>
<path opacity="0.1" d="M113.304 65.8612L107.062 64.9836" stroke="white" stroke-width="0.551925" stroke-miterlimit="10"/>
<path opacity="0.1" d="M113.691 62.9028L107.41 62.3564" stroke="white" stroke-width="0.551925" stroke-miterlimit="10"/>
<path opacity="0.1" d="M113.923 59.928L107.62 59.7073" stroke="white" stroke-width="0.551925" stroke-miterlimit="10"/>
<path opacity="0.5" d="M113.995 56.9476L107.697 57.058" stroke="white" stroke-width="0.551925" stroke-miterlimit="10"/>
<path opacity="0.1" d="M113.917 53.9617L107.63 54.4032" stroke="white" stroke-width="0.551925" stroke-miterlimit="10"/>
<path opacity="0.1" d="M113.68 50.9867L107.421 51.7539" stroke="white" stroke-width="0.551925" stroke-miterlimit="10"/>
<path opacity="0.1" d="M113.288 48.0284L107.079 49.1268" stroke="white" stroke-width="0.551925" stroke-miterlimit="10"/>
<path opacity="0.1" d="M112.742 45.0978L106.599 46.5162" stroke="white" stroke-width="0.551925" stroke-miterlimit="10"/>
<path opacity="0.1" d="M112.041 42.1946L105.98 43.9331" stroke="white" stroke-width="0.551925" stroke-miterlimit="10"/>
<path opacity="0.1" d="M111.191 39.3358L105.23 41.389" stroke="white" stroke-width="0.551925" stroke-miterlimit="10"/>
<path opacity="0.1" d="M110.192 36.5264L104.347 38.8831" stroke="white" stroke-width="0.551925" stroke-miterlimit="10"/>
<path opacity="0.2" d="M109.049 33.7667L103.337 36.4325" stroke="white" stroke-width="0.551925" stroke-miterlimit="10"/>
<path opacity="0.1" d="M107.758 31.0734L102.194 34.0372" stroke="white" stroke-width="0.551925" stroke-miterlimit="10"/>
<path opacity="0.1" d="M106.334 28.4573L100.93 31.7026" stroke="white" stroke-width="0.551925" stroke-miterlimit="10"/>
<path opacity="0.1" d="M104.772 25.9128L99.5449 29.4341" stroke="white" stroke-width="0.551925" stroke-miterlimit="10"/>
<path opacity="0.1" d="M103.077 23.4568L98.0439 27.2485" stroke="white" stroke-width="0.551925" stroke-miterlimit="10"/>
<path opacity="0.1" d="M101.261 21.089L96.4321 25.1401" stroke="white" stroke-width="0.551925" stroke-miterlimit="10"/>
<path opacity="0.1" d="M99.3185 18.8207L94.71 23.1202" stroke="white" stroke-width="0.551925" stroke-miterlimit="10"/>
<path opacity="0.1" d="M97.2661 16.6571L92.8838 21.1939" stroke="white" stroke-width="0.551925" stroke-miterlimit="10"/>
<path opacity="0.1" d="M95.0968 14.6095L90.9629 19.3671" stroke="white" stroke-width="0.551925" stroke-miterlimit="10"/>
<path opacity="0.1" d="M92.8283 12.6722L88.9482 17.6396" stroke="white" stroke-width="0.551925" stroke-miterlimit="10"/>
<path opacity="0.1" d="M90.455 10.8564L86.8398 16.0225" stroke="white" stroke-width="0.551925" stroke-miterlimit="10"/>
<path opacity="0.2" d="M87.999 9.16748L84.6543 14.5156" stroke="white" stroke-width="0.551925" stroke-miterlimit="10"/>
<path opacity="0.1" d="M85.4486 7.61108L82.3965 13.1248" stroke="white" stroke-width="0.551925" stroke-miterlimit="10"/>
<path opacity="0.1" d="M82.8272 6.19263L80.062 11.8554" stroke="white" stroke-width="0.551925" stroke-miterlimit="10"/>
<path opacity="0.1" d="M80.1335 4.91211L77.6719 10.7128" stroke="white" stroke-width="0.551925" stroke-miterlimit="10"/>
<path opacity="0.1" d="M77.3742 3.76953L75.2217 9.69168" stroke="white" stroke-width="0.551925" stroke-miterlimit="10"/>
<path opacity="0.1" d="M74.5597 2.77637L72.7163 8.80338" stroke="white" stroke-width="0.551925" stroke-miterlimit="10"/>
<path opacity="0.1" d="M71.7007 1.93188L70.1719 8.04721" stroke="white" stroke-width="0.551925" stroke-miterlimit="10"/>
<path opacity="0.1" d="M68.7974 1.23633L67.5942 7.4234" stroke="white" stroke-width="0.551925" stroke-miterlimit="10"/>
<path opacity="0.1" d="M65.8614 0.695435L64.9839 6.9377" stroke="white" stroke-width="0.551925" stroke-miterlimit="10"/>
<path opacity="0.1" d="M62.9028 0.309082L62.3564 6.58998" stroke="white" stroke-width="0.551925" stroke-miterlimit="10"/>
<path opacity="0.1" d="M59.9283 0.0827637L59.7075 6.38022" stroke="white" stroke-width="0.551925" stroke-miterlimit="10"/>
</g>
<path d="M52.8682 20H54.625V13.0615H54.6592L59.4785 20H61.0508V10.1357H59.3008V17.0469H59.2598L54.4541 10.1357H52.8682V20Z" fill="#F63535"/>
<path d="M57.334 103.171C59.7402 103.171 61.1895 102.002 61.1895 100.163V100.156C61.1895 98.6182 60.2939 97.7842 58.2432 97.3604L57.1768 97.1416C55.9873 96.8955 55.4473 96.4854 55.4473 95.7881V95.7812C55.4473 94.9951 56.165 94.4551 57.3203 94.4482C58.4277 94.4482 59.1865 94.9609 59.3027 95.8223L59.3164 95.9043H61.0049L60.998 95.7881C60.8955 94.0996 59.4873 92.9648 57.334 92.9648C55.208 92.9648 53.6836 94.1406 53.6768 95.877V95.8838C53.6768 97.3535 54.6338 98.2559 56.5752 98.6592L57.6348 98.8779C58.9062 99.1445 59.4189 99.541 59.4189 100.279V100.286C59.4189 101.134 58.6396 101.688 57.3955 101.688C56.1582 101.688 55.29 101.161 55.1602 100.313L55.1465 100.231H53.458L53.4648 100.334C53.5811 102.104 55.0713 103.171 57.334 103.171Z" fill="white"/>
<path d="M11.9395 62H13.6416L15.6309 54.9248H15.6719L17.6611 62H19.3633L22.0088 52.1357H20.1768L18.4609 59.5801H18.4268L16.4512 52.1357H14.8516L12.876 59.5801H12.8418L11.126 52.1357H9.29395L11.9395 62Z" fill="white"/>
<path d="M97.8682 62H104.253V60.5166H99.6318V57.707H104V56.2783H99.6318V53.6191H104.253V52.1357H97.8682V62Z" fill="white"/>
<defs>
<clipPath id="clip0_131_742">
<rect width="114" height="114" fill="white"/>
</clipPath>
</defs>
</svg>
