<svg xmlns="http://www.w3.org/2000/svg" version="1.1" viewBox="-5.0 -10.0 110.0 135.0">
 <g>
  <path d="m22.496 32.254c-0.84375-0.003906-1.5859 0.5625-1.8086 1.3789-0.21875 0.81641 0.14062 1.6797 0.87109 2.0977 0.50391 0.28906 1.1094 0.32812 1.6445 0.10547 0.53516-0.21875 0.9375-0.67578 1.0859-1.2344 0.14844-0.55859 0.03125-1.1562-0.32031-1.6172-0.34766-0.46094-0.89453-0.73047-1.4727-0.73047z"/>
  <path d="m35.566 39.801c-0.84375-0.003906-1.5859 0.5625-1.8047 1.3789-0.21875 0.81641 0.13672 1.6797 0.87109 2.1016 0.89063 0.51172 2.0312 0.20703 2.5469-0.68359 0.51562-0.89453 0.20703-2.0352-0.68359-2.5508-0.28125-0.16016-0.60156-0.24609-0.92969-0.24609z"/>
  <path d="m35.566 56.469c-0.84375 0-1.582 0.56641-1.8008 1.3828-0.21875 0.81641 0.13672 1.6758 0.86719 2.1016 0.89063 0.51172 2.0312 0.20703 2.5469-0.68359 0.51562-0.89453 0.20703-2.0352-0.68359-2.5508-0.28125-0.16016-0.60156-0.25-0.92969-0.25z"/>
  <path d="m64.441 39.801c-0.84766-0.003906-1.5898 0.5625-1.8086 1.3789-0.21875 0.81641 0.13672 1.6797 0.87109 2.1016 0.65234 0.37109 1.4609 0.31641 2.0547-0.13672 0.59766-0.45312 0.86328-1.2188 0.67969-1.9453-0.21875-0.8125-0.95703-1.3789-1.7969-1.3789z"/>
  <path d="m64.441 56.469c-0.66016 0.011719-1.2656 0.36719-1.6016 0.93359-0.51172 0.89453-0.20703 2.0352 0.68359 2.5508 0.65625 0.375 1.4688 0.32031 2.0703-0.14062 0.59766-0.45703 0.85938-1.2305 0.66797-1.9609-0.22266-0.8125-0.95703-1.3789-1.8008-1.3828z"/>
  <path d="m77.512 64c-0.58203-0.003906-1.1289 0.26562-1.4844 0.72656-0.35156 0.46094-0.47266 1.0625-0.32031 1.6211 0.125 0.48047 0.4375 0.88672 0.86719 1.1328 0.50391 0.28906 1.1094 0.32812 1.6445 0.10547 0.53516-0.22266 0.9375-0.67969 1.0859-1.2383 0.15234-0.55859 0.03125-1.1562-0.31641-1.6133-0.35156-0.46094-0.89844-0.73047-1.4766-0.73438z"/>
  <path d="m77.504 32.254c-0.57812 0-1.125 0.26953-1.4727 0.73047-0.35156 0.46094-0.46875 1.0586-0.32031 1.6172 0.14844 0.55859 0.55078 1.0156 1.0859 1.2344 0.53516 0.22266 1.1406 0.18359 1.6445-0.10547 0.73047-0.41797 1.0898-1.2812 0.87109-2.0977-0.22266-0.81641-0.96484-1.3828-1.8086-1.3789z"/>
  <path d="m22.488 64c-0.57812 0.003906-1.125 0.27344-1.4766 0.73438-0.34766 0.45703-0.46875 1.0547-0.31641 1.6133 0.14844 0.55859 0.55078 1.0156 1.0859 1.2383 0.53516 0.22266 1.1406 0.18359 1.6445-0.10547 0.89062-0.51562 1.1953-1.6562 0.68359-2.5469-0.33594-0.57812-0.95312-0.93359-1.6211-0.93359z"/>
  <path d="m36.242 24.312c-0.32422 0-0.64453 0.085938-0.92969 0.24609-0.42969 0.25-0.74219 0.65625-0.86719 1.1328-0.12891 0.48047-0.0625 0.98828 0.1875 1.418 0.30859 0.53906 0.87109 0.88672 1.4922 0.92578 0.62109 0.042969 1.2227-0.23047 1.6016-0.72266 0.37891-0.49609 0.48438-1.1445 0.28516-1.7344s-0.68359-1.043-1.2852-1.2031c-0.15625-0.042969-0.32031-0.0625-0.48437-0.0625z"/>
  <path d="m63.754 71.957c-0.66797 0.003907-1.2773 0.35938-1.6094 0.9375-0.32812 0.57812-0.32812 1.2852 0.007813 1.8633 0.3125 0.53516 0.87109 0.88281 1.4922 0.92188 0.62109 0.039062 1.2227-0.23047 1.5977-0.72656 0.37891-0.49219 0.48828-1.1445 0.28516-1.7305-0.19922-0.58984-0.67969-1.043-1.2812-1.2031-0.16016-0.042969-0.32812-0.0625-0.49219-0.0625z"/>
  <path d="m63.758 24.312c-0.58203 0-1.1289 0.26953-1.4805 0.73047-0.35547 0.45703-0.47266 1.0547-0.32422 1.6172 0.19531 0.73047 0.80859 1.2695 1.5586 1.3672 0.74609 0.097656 1.4805-0.26562 1.8555-0.91797 0.25-0.42969 0.31641-0.9375 0.1875-1.418-0.125-0.47656-0.4375-0.88281-0.86719-1.1328-0.28516-0.16016-0.60547-0.24609-0.92969-0.24609z"/>
  <path d="m36.246 71.957c-0.16016 0-0.32422 0.023438-0.48047 0.0625-0.48047 0.12891-0.88672 0.44141-1.1328 0.87109-0.25 0.42969-0.31641 0.9375-0.1875 1.418 0.125 0.47656 0.4375 0.88281 0.86719 1.1328 0.42969 0.24609 0.9375 0.3125 1.4141 0.18359 0.48047-0.125 0.88672-0.44141 1.1328-0.86719 0.33203-0.57812 0.33203-1.2852 0.003906-1.8594-0.32812-0.57813-0.94141-0.9375-1.6016-0.94141z"/>
  <path d="m77.508 48.137c-0.75391 0-1.4336 0.45312-1.7227 1.1484-0.28906 0.69922-0.12891 1.5 0.40625 2.0312 0.53125 0.53516 1.332 0.69531 2.0312 0.40625 0.69531-0.28906 1.1484-0.96875 1.1484-1.7227 0-1.0312-0.83203-1.8633-1.8633-1.8633z"/>
  <path d="m22.492 48.137c-0.75391 0-1.4336 0.45312-1.7227 1.1484-0.28906 0.69922-0.12891 1.5 0.40625 2.0312 0.53125 0.53516 1.332 0.69531 2.0312 0.40625 0.69531-0.28906 1.1484-0.96875 1.1484-1.7227 0-1.0312-0.83594-1.8633-1.8633-1.8633z"/>
  <path d="m50 16.371c-0.75391 0-1.4336 0.45312-1.7227 1.1523-0.28906 0.69531-0.12891 1.4961 0.40625 2.0312 0.53125 0.53125 1.332 0.69141 2.0312 0.40234 0.69531-0.28906 1.1484-0.96875 1.1484-1.7227 0-1.0273-0.83203-1.8633-1.8633-1.8633z"/>
  <path d="m50 48.137c-0.75391 0-1.4336 0.45312-1.7227 1.1484-0.28906 0.69922-0.12891 1.5 0.40625 2.0312 0.53125 0.53516 1.332 0.69531 2.0312 0.40625 0.69531-0.28906 1.1484-0.96875 1.1484-1.7227 0-1.0312-0.83203-1.8633-1.8633-1.8633z"/>
  <path d="m50 64.801c-0.75781-0.003906-1.4375 0.45312-1.7305 1.1523-0.28906 0.69531-0.12891 1.5 0.40625 2.0352 0.53516 0.53516 1.3398 0.69531 2.0352 0.40625 0.69922-0.29297 1.1562-0.97266 1.1523-1.7305 0-1.0312-0.83203-1.8633-1.8633-1.8633z"/>
  <path d="m50 31.465c-0.75781-0.003906-1.4375 0.45312-1.7305 1.1484-0.28906 0.69922-0.12891 1.5039 0.40234 2.0391 0.53516 0.53516 1.3398 0.69531 2.0391 0.40625 0.69922-0.28906 1.1523-0.96875 1.1523-1.7266 0-1.0312-0.83203-1.8672-1.8633-1.8672z"/>
  <path d="m50 79.898c-0.75391 0-1.4336 0.45703-1.7227 1.1523-0.28906 0.69531-0.12891 1.5 0.40625 2.0312 0.53125 0.53125 1.332 0.69141 2.0312 0.40234 0.69531-0.28516 1.1484-0.96484 1.1484-1.7188 0-1.0312-0.83203-1.8672-1.8633-1.8672z"/>
 </g>
<text x="0.0" y="117.5" font-size="5.0" font-weight="bold" font-family="Arbeit Regular, Helvetica, Arial-Unicode, Arial, Sans-serif" fill="#000000">Created by Mustofa Bayu</text><text x="0.0" y="122.5" font-size="5.0" font-weight="bold" font-family="Arbeit Regular, Helvetica, Arial-Unicode, Arial, Sans-serif" fill="#000000">from Noun Project</text></svg>