<svg width="58" height="48" viewBox="0 0 58 48" fill="none" xmlns="http://www.w3.org/2000/svg">
<circle cx="13.1435" cy="34.1884" r="2.62835" fill="#E7EAE9"/>
<circle cx="13.1435" cy="39.4484" r="2.62835" fill="#E7EAE9"/>
<circle cx="18.4034" cy="28.9284" r="2.62835" fill="#E7EAE9"/>
<circle cx="18.4034" cy="34.1884" r="2.62835" fill="#E7EAE9"/>
<circle cx="18.4034" cy="39.4484" r="2.62835" fill="#E7EAE9"/>
<circle cx="18.4034" cy="44.7119" r="2.62835" fill="#E7EAE9"/>
<circle cx="23.6552" cy="28.9284" r="2.62835" fill="#E7EAE9"/>
<circle cx="23.6552" cy="34.1884" r="2.62835" fill="#E7EAE9"/>
<circle cx="23.6552" cy="39.4484" r="2.62835" fill="#E7EAE9"/>
<circle cx="23.6552" cy="44.7119" r="2.62835" fill="#E7EAE9"/>
<circle cx="28.9175" cy="34.1884" r="2.62835" fill="#E7EAE9"/>
<circle cx="28.9175" cy="39.4484" r="2.62835" fill="#E7EAE9"/>
<circle cx="28.9175" cy="44.7119" r="2.62835" fill="#E7EAE9"/>
<circle cx="34.1698" cy="28.9284" r="2.62835" fill="#E7EAE9"/>
<circle cx="34.1698" cy="34.1884" r="2.62835" fill="#E7EAE9"/>
<circle cx="34.1698" cy="39.4484" r="2.62835" fill="#E7EAE9"/>
<circle cx="34.1698" cy="44.7119" r="2.62835" fill="#E7EAE9"/>
<circle cx="39.432" cy="28.9284" r="2.62835" fill="#E7EAE9"/>
<circle cx="39.432" cy="34.1884" r="2.62835" fill="#E7EAE9"/>
<circle cx="39.432" cy="39.4484" r="2.62835" fill="#E7EAE9"/>
<circle cx="39.432" cy="44.7119" r="2.62835" fill="#E7EAE9"/>
<circle cx="44.6843" cy="23.6684" r="2.62835" fill="#E7EAE9"/>
<circle cx="44.6843" cy="28.9284" r="2.62835" fill="#E7EAE9"/>
<circle cx="44.6843" cy="34.1884" r="2.62835" fill="#E7EAE9"/>
<circle cx="44.6843" cy="39.4484" r="2.62835" fill="#E7EAE9"/>
<circle cx="44.6843" cy="44.7119" r="2.62835" fill="#E7EAE9"/>
<circle cx="49.9428" cy="23.6684" r="2.62835" fill="#E7EAE9"/>
<circle cx="49.9428" cy="28.9284" r="2.62835" fill="#E7EAE9"/>
<circle cx="49.9428" cy="34.1884" r="2.62835" fill="#E7EAE9"/>
<circle cx="49.9428" cy="39.4484" r="2.62835" fill="#E7EAE9"/>
<circle cx="49.9428" cy="44.7119" r="2.62835" fill="#E7EAE9"/>
<circle cx="55.1984" cy="28.9284" r="2.62835" fill="#E7EAE9"/>
<circle cx="55.1984" cy="34.1884" r="2.62835" fill="#E7EAE9"/>
<circle cx="55.1984" cy="39.4484" r="2.62835" fill="#E7EAE9"/>
<circle cx="13.1384" cy="7.88835" r="2.62835" fill="#E7EAE9"/>
<circle cx="2.62835" cy="13.1483" r="2.62835" fill="#E7EAE9"/>
<circle cx="7.88014" cy="7.88469" r="2.62835" fill="#E7EAE9"/>
<circle cx="7.88014" cy="13.1483" r="2.62835" fill="#E7EAE9"/>
<circle cx="7.88014" cy="18.4084" r="2.62835" fill="#E7EAE9"/>
<circle cx="13.1425" cy="13.1483" r="2.62835" fill="#E7EAE9"/>
<circle cx="13.1425" cy="18.4084" r="2.62835" fill="#E7EAE9"/>
<circle cx="18.3947" cy="13.1483" r="2.62835" fill="#E7EAE9"/>
<circle cx="18.3947" cy="18.4084" r="2.62835" fill="#E7EAE9"/>
<circle cx="23.657" cy="7.88469" r="2.62835" fill="#E7EAE9"/>
<circle cx="23.657" cy="13.1483" r="2.62835" fill="#E7EAE9"/>
<circle cx="23.657" cy="18.4084" r="2.62835" fill="#E7EAE9"/>
<circle cx="28.9093" cy="2.62835" r="2.62835" fill="#E7EAE9"/>
<circle cx="28.9093" cy="7.88469" r="2.62835" fill="#E7EAE9"/>
<circle cx="28.9093" cy="13.1483" r="2.62835" fill="#E7EAE9"/>
<circle cx="28.9093" cy="18.4084" r="2.62835" fill="#E7EAE9"/>
<circle cx="34.1678" cy="2.62835" r="2.62835" fill="#E7EAE9"/>
<circle cx="34.1678" cy="7.88469" r="2.62835" fill="#E7EAE9"/>
<circle cx="34.1678" cy="13.1483" r="2.62835" fill="#E7EAE9"/>
<circle cx="34.1678" cy="18.4084" r="2.62835" fill="#E7EAE9"/>
<circle cx="39.4234" cy="7.88469" r="2.62835" fill="#E7EAE9"/>
<circle cx="39.4234" cy="13.1483" r="2.62835" fill="#E7EAE9"/>
</svg>
